<svg width="16" height="16" viewBox="0 0 16 16" fill="none" xmlns="http://www.w3.org/2000/svg">
<path d="M8.66232 0.429953L10.5634 4.46137C10.6708 4.68909 10.8783 4.84692 11.1185 4.88341L15.3688 5.52998C15.6465 5.5722 15.8773 5.77583 15.9639 6.05523C16.0506 6.33463 15.9782 6.64131 15.7772 6.84627L12.7011 9.98421C12.5271 10.1617 12.4482 10.4171 12.4888 10.667L13.2149 15.0981C13.2622 15.3876 13.1485 15.6801 12.9215 15.8527C12.6945 16.0253 12.3936 16.048 12.1453 15.9114L8.34314 13.8189C8.12827 13.7009 7.87173 13.7009 7.65686 13.8189L3.85472 15.9114C3.60638 16.048 3.30546 16.0253 3.07846 15.8527C2.85146 15.6801 2.73775 15.3876 2.78513 15.0981L3.51121 10.667C3.55225 10.4167 3.47284 10.1613 3.29892 9.98421L0.22285 6.84627C0.021796 6.64131 -0.0506205 6.33463 0.0360617 6.05523C0.122744 5.77583 0.353484 5.5722 0.631223 5.52998L4.88155 4.88341C5.12165 4.84692 5.32922 4.68909 5.43661 4.46137L7.33768 0.429953C7.61042 -0.143318 8.39179 -0.143318 8.66232 0.429953Z" fill="#FC7614"/>
</svg>
